<svg xmlns="http://www.w3.org/2000/svg" version="1.0" width="60pt" height="60pt" viewBox="0 0 60 60" preserveAspectRatio="xMidYMid meet">
<g transform="translate(0,60) scale(0.1,-0.1)" fill="#000000" stroke="none">
<path d="M268 566 c-24 -48 -95 -86 -164 -86 -63 0 -67 -10 -34 -81 26 -58 26 -143 0 -200 -32 -71 -29 -79 34 -79 69 0 140 -38 164 -86 8 -19 23 -34 32 -34 9 0 24 15 32 34 24 48 95 86 164 86 63 0 66 8 34 79 -26 57 -26 142 0 200 33 71 29 81 -34 81 -69 0 -140 38 -164 86 -8 19 -23 34 -32 34 -9 0 -24 -15 -32 -34z"/>
</g>
</svg>